<mxfile host="app.diagrams.net" modified="2023-12-26T09:15:52.460Z" agent="Mozilla/5.0 (Windows NT 10.0; Win64; x64) AppleWebKit/537.36 (KHTML, like Gecko) Chrome/120.0.0.0 Safari/537.36" etag="0KXibyYBJ1MTcq9AXkkT" version="22.1.11" type="device">
  <diagram id="C5RBs43oDa-KdzZeNtuy" name="Page-1">
    <mxGraphModel dx="2049" dy="1103" grid="1" gridSize="10" guides="1" tooltips="1" connect="1" arrows="1" fold="1" page="1" pageScale="1" pageWidth="827" pageHeight="1169" math="0" shadow="0">
      <root>
        <mxCell id="WIyWlLk6GJQsqaUBKTNV-0" />
        <mxCell id="WIyWlLk6GJQsqaUBKTNV-1" parent="WIyWlLk6GJQsqaUBKTNV-0" />
        <mxCell id="H1e-5a3Cm02XF8Il_Q23-0" style="edgeStyle=orthogonalEdgeStyle;rounded=0;orthogonalLoop=1;jettySize=auto;html=1;exitX=0.5;exitY=1;exitDx=0;exitDy=0;strokeWidth=2;" parent="WIyWlLk6GJQsqaUBKTNV-1" source="CSgYlb6cWF5ThP2nFrCP-2" target="9F6AWZ_ub-mQiCkGwfMx-13" edge="1">
          <mxGeometry relative="1" as="geometry" />
        </mxCell>
        <mxCell id="H1e-5a3Cm02XF8Il_Q23-50" style="edgeStyle=orthogonalEdgeStyle;rounded=0;orthogonalLoop=1;jettySize=auto;html=1;exitX=1;exitY=0.5;exitDx=0;exitDy=0;entryX=0.5;entryY=1;entryDx=0;entryDy=0;strokeWidth=2;strokeColor=#990000;" parent="WIyWlLk6GJQsqaUBKTNV-1" source="CSgYlb6cWF5ThP2nFrCP-2" target="CSgYlb6cWF5ThP2nFrCP-60" edge="1">
          <mxGeometry relative="1" as="geometry">
            <Array as="points">
              <mxPoint x="640" y="440" />
              <mxPoint x="640" y="860" />
              <mxPoint x="520" y="860" />
            </Array>
          </mxGeometry>
        </mxCell>
        <mxCell id="CSgYlb6cWF5ThP2nFrCP-2" value="레벨 7 이하" style="rhombus;whiteSpace=wrap;html=1;fontSize=14;strokeWidth=1;" parent="WIyWlLk6GJQsqaUBKTNV-1" vertex="1">
          <mxGeometry x="40" y="400" width="160" height="80" as="geometry" />
        </mxCell>
        <mxCell id="CSgYlb6cWF5ThP2nFrCP-36" style="edgeStyle=orthogonalEdgeStyle;rounded=0;orthogonalLoop=1;jettySize=auto;html=1;exitX=0.5;exitY=1;exitDx=0;exitDy=0;entryX=0.5;entryY=0;entryDx=0;entryDy=0;strokeWidth=2;fontSize=14;" parent="WIyWlLk6GJQsqaUBKTNV-1" source="CSgYlb6cWF5ThP2nFrCP-3" target="CSgYlb6cWF5ThP2nFrCP-2" edge="1">
          <mxGeometry relative="1" as="geometry" />
        </mxCell>
        <mxCell id="H1e-5a3Cm02XF8Il_Q23-49" style="edgeStyle=orthogonalEdgeStyle;rounded=0;orthogonalLoop=1;jettySize=auto;html=1;exitX=1;exitY=0.5;exitDx=0;exitDy=0;entryX=0.5;entryY=1;entryDx=0;entryDy=0;strokeWidth=2;strokeColor=#990000;" parent="WIyWlLk6GJQsqaUBKTNV-1" source="CSgYlb6cWF5ThP2nFrCP-3" target="CSgYlb6cWF5ThP2nFrCP-60" edge="1">
          <mxGeometry relative="1" as="geometry">
            <Array as="points">
              <mxPoint x="640" y="320" />
              <mxPoint x="640" y="860" />
              <mxPoint x="520" y="860" />
            </Array>
          </mxGeometry>
        </mxCell>
        <mxCell id="CSgYlb6cWF5ThP2nFrCP-3" value="캐릭터&lt;br style=&quot;font-size: 14px;&quot;&gt;생존" style="rhombus;whiteSpace=wrap;html=1;fontSize=14;" parent="WIyWlLk6GJQsqaUBKTNV-1" vertex="1">
          <mxGeometry x="40" y="280" width="160" height="80" as="geometry" />
        </mxCell>
        <mxCell id="CSgYlb6cWF5ThP2nFrCP-34" style="edgeStyle=orthogonalEdgeStyle;rounded=0;orthogonalLoop=1;jettySize=auto;html=1;exitX=0.5;exitY=1;exitDx=0;exitDy=0;entryX=0.5;entryY=0;entryDx=0;entryDy=0;strokeWidth=2;fontSize=14;" parent="WIyWlLk6GJQsqaUBKTNV-1" source="CSgYlb6cWF5ThP2nFrCP-15" target="CSgYlb6cWF5ThP2nFrCP-30" edge="1">
          <mxGeometry relative="1" as="geometry" />
        </mxCell>
        <mxCell id="CSgYlb6cWF5ThP2nFrCP-15" value="시작" style="rounded=1;whiteSpace=wrap;html=1;arcSize=50;fontSize=14;" parent="WIyWlLk6GJQsqaUBKTNV-1" vertex="1">
          <mxGeometry x="40" y="40" width="160" height="80" as="geometry" />
        </mxCell>
        <mxCell id="CSgYlb6cWF5ThP2nFrCP-62" style="edgeStyle=orthogonalEdgeStyle;rounded=0;orthogonalLoop=1;jettySize=auto;html=1;exitX=0.5;exitY=1;exitDx=0;exitDy=0;entryX=0.5;entryY=0;entryDx=0;entryDy=0;strokeWidth=2;" parent="WIyWlLk6GJQsqaUBKTNV-1" source="CSgYlb6cWF5ThP2nFrCP-16" target="CSgYlb6cWF5ThP2nFrCP-59" edge="1">
          <mxGeometry relative="1" as="geometry" />
        </mxCell>
        <mxCell id="H1e-5a3Cm02XF8Il_Q23-29" style="edgeStyle=orthogonalEdgeStyle;rounded=0;orthogonalLoop=1;jettySize=auto;html=1;exitX=1;exitY=0.5;exitDx=0;exitDy=0;entryX=0.5;entryY=1;entryDx=0;entryDy=0;strokeWidth=2;strokeColor=#990000;" parent="WIyWlLk6GJQsqaUBKTNV-1" source="CSgYlb6cWF5ThP2nFrCP-16" target="CSgYlb6cWF5ThP2nFrCP-60" edge="1">
          <mxGeometry relative="1" as="geometry" />
        </mxCell>
        <mxCell id="CSgYlb6cWF5ThP2nFrCP-16" value="필요&lt;br style=&quot;font-size: 14px;&quot;&gt;경험치&lt;br style=&quot;font-size: 14px;&quot;&gt;도달" style="rhombus;whiteSpace=wrap;html=1;fontSize=14;strokeWidth=1;" parent="WIyWlLk6GJQsqaUBKTNV-1" vertex="1">
          <mxGeometry x="40" y="760" width="160" height="80" as="geometry" />
        </mxCell>
        <mxCell id="CSgYlb6cWF5ThP2nFrCP-35" style="edgeStyle=orthogonalEdgeStyle;rounded=0;orthogonalLoop=1;jettySize=auto;html=1;exitX=0.5;exitY=1;exitDx=0;exitDy=0;strokeWidth=2;fontSize=14;" parent="WIyWlLk6GJQsqaUBKTNV-1" source="CSgYlb6cWF5ThP2nFrCP-30" target="CSgYlb6cWF5ThP2nFrCP-3" edge="1">
          <mxGeometry relative="1" as="geometry" />
        </mxCell>
        <mxCell id="H1e-5a3Cm02XF8Il_Q23-47" style="edgeStyle=orthogonalEdgeStyle;rounded=0;orthogonalLoop=1;jettySize=auto;html=1;exitX=1;exitY=0.5;exitDx=0;exitDy=0;entryX=0.5;entryY=1;entryDx=0;entryDy=0;strokeWidth=2;strokeColor=#990000;" parent="WIyWlLk6GJQsqaUBKTNV-1" source="CSgYlb6cWF5ThP2nFrCP-30" target="CSgYlb6cWF5ThP2nFrCP-60" edge="1">
          <mxGeometry relative="1" as="geometry">
            <Array as="points">
              <mxPoint x="640" y="200" />
              <mxPoint x="640" y="860" />
              <mxPoint x="520" y="860" />
            </Array>
          </mxGeometry>
        </mxCell>
        <mxCell id="CSgYlb6cWF5ThP2nFrCP-30" value="경험치 획득&lt;br style=&quot;font-size: 14px;&quot;&gt;이벤트 발생" style="rhombus;whiteSpace=wrap;html=1;fontSize=14;" parent="WIyWlLk6GJQsqaUBKTNV-1" vertex="1">
          <mxGeometry x="40" y="160" width="160" height="80" as="geometry" />
        </mxCell>
        <mxCell id="CSgYlb6cWF5ThP2nFrCP-33" value="사냥, 던전 클리어,&lt;br style=&quot;font-size: 14px;&quot;&gt;퀘스트 완료, 소비 아이템" style="text;html=1;strokeColor=none;fillColor=none;align=center;verticalAlign=middle;whiteSpace=wrap;rounded=0;fontSize=14;" parent="WIyWlLk6GJQsqaUBKTNV-1" vertex="1">
          <mxGeometry x="160" y="140" width="160" height="40" as="geometry" />
        </mxCell>
        <mxCell id="H1e-5a3Cm02XF8Il_Q23-6" style="edgeStyle=orthogonalEdgeStyle;rounded=0;orthogonalLoop=1;jettySize=auto;html=1;exitX=0.5;exitY=1;exitDx=0;exitDy=0;strokeWidth=2;" parent="WIyWlLk6GJQsqaUBKTNV-1" source="CSgYlb6cWF5ThP2nFrCP-54" target="CSgYlb6cWF5ThP2nFrCP-16" edge="1">
          <mxGeometry relative="1" as="geometry" />
        </mxCell>
        <mxCell id="CSgYlb6cWF5ThP2nFrCP-54" value="경험치 획득" style="whiteSpace=wrap;html=1;strokeWidth=1;" parent="WIyWlLk6GJQsqaUBKTNV-1" vertex="1">
          <mxGeometry x="40" y="640" width="160" height="80" as="geometry" />
        </mxCell>
        <mxCell id="CSgYlb6cWF5ThP2nFrCP-59" value="레벨 업으로 이동" style="rounded=1;whiteSpace=wrap;html=1;arcSize=50;fontSize=14;strokeWidth=1;" parent="WIyWlLk6GJQsqaUBKTNV-1" vertex="1">
          <mxGeometry x="40" y="890" width="160" height="80" as="geometry" />
        </mxCell>
        <mxCell id="CSgYlb6cWF5ThP2nFrCP-60" value="종료" style="rounded=1;whiteSpace=wrap;html=1;arcSize=50;strokeWidth=1;" parent="WIyWlLk6GJQsqaUBKTNV-1" vertex="1">
          <mxGeometry x="440" y="760" width="160" height="80" as="geometry" />
        </mxCell>
        <mxCell id="H1e-5a3Cm02XF8Il_Q23-26" style="edgeStyle=orthogonalEdgeStyle;rounded=0;orthogonalLoop=1;jettySize=auto;html=1;exitX=0.5;exitY=1;exitDx=0;exitDy=0;entryX=0.5;entryY=0;entryDx=0;entryDy=0;strokeWidth=2;" parent="WIyWlLk6GJQsqaUBKTNV-1" source="H1e-5a3Cm02XF8Il_Q23-21" target="CSgYlb6cWF5ThP2nFrCP-60" edge="1">
          <mxGeometry relative="1" as="geometry">
            <mxPoint x="40" y="1040" as="sourcePoint" />
          </mxGeometry>
        </mxCell>
        <mxCell id="9F6AWZ_ub-mQiCkGwfMx-16" style="edgeStyle=orthogonalEdgeStyle;rounded=0;orthogonalLoop=1;jettySize=auto;html=1;exitX=1;exitY=0.5;exitDx=0;exitDy=0;entryX=0;entryY=0.5;entryDx=0;entryDy=0;strokeWidth=2;strokeColor=#990000;" parent="WIyWlLk6GJQsqaUBKTNV-1" source="9F6AWZ_ub-mQiCkGwfMx-13" target="9F6AWZ_ub-mQiCkGwfMx-15" edge="1">
          <mxGeometry relative="1" as="geometry">
            <mxPoint x="120" y="640" as="targetPoint" />
          </mxGeometry>
        </mxCell>
        <mxCell id="H1e-5a3Cm02XF8Il_Q23-1" style="edgeStyle=orthogonalEdgeStyle;rounded=0;orthogonalLoop=1;jettySize=auto;html=1;exitX=0.5;exitY=1;exitDx=0;exitDy=0;entryX=0.5;entryY=0;entryDx=0;entryDy=0;strokeWidth=2;" parent="WIyWlLk6GJQsqaUBKTNV-1" source="9F6AWZ_ub-mQiCkGwfMx-13" target="CSgYlb6cWF5ThP2nFrCP-54" edge="1">
          <mxGeometry relative="1" as="geometry" />
        </mxCell>
        <mxCell id="9F6AWZ_ub-mQiCkGwfMx-13" value="레벨 3 이하" style="rhombus;whiteSpace=wrap;html=1;strokeWidth=1;" parent="WIyWlLk6GJQsqaUBKTNV-1" vertex="1">
          <mxGeometry x="40" y="520" width="160" height="80" as="geometry" />
        </mxCell>
        <mxCell id="H1e-5a3Cm02XF8Il_Q23-11" style="edgeStyle=orthogonalEdgeStyle;rounded=0;orthogonalLoop=1;jettySize=auto;html=1;exitX=1;exitY=0.5;exitDx=0;exitDy=0;entryX=0;entryY=0.5;entryDx=0;entryDy=0;strokeWidth=2;strokeColor=#990000;" parent="WIyWlLk6GJQsqaUBKTNV-1" source="9F6AWZ_ub-mQiCkGwfMx-15" target="H1e-5a3Cm02XF8Il_Q23-7" edge="1">
          <mxGeometry relative="1" as="geometry" />
        </mxCell>
        <mxCell id="9F6AWZ_ub-mQiCkGwfMx-15" value="모든 능력치&lt;br&gt;한계치 도달" style="rhombus;whiteSpace=wrap;html=1;strokeWidth=1;" parent="WIyWlLk6GJQsqaUBKTNV-1" vertex="1">
          <mxGeometry x="240" y="520" width="160" height="80" as="geometry" />
        </mxCell>
        <mxCell id="H1e-5a3Cm02XF8Il_Q23-9" style="edgeStyle=orthogonalEdgeStyle;rounded=0;orthogonalLoop=1;jettySize=auto;html=1;exitX=0.5;exitY=1;exitDx=0;exitDy=0;entryX=0.5;entryY=0;entryDx=0;entryDy=0;strokeWidth=2;" parent="WIyWlLk6GJQsqaUBKTNV-1" source="H1e-5a3Cm02XF8Il_Q23-7" target="H1e-5a3Cm02XF8Il_Q23-21" edge="1">
          <mxGeometry relative="1" as="geometry" />
        </mxCell>
        <mxCell id="H1e-5a3Cm02XF8Il_Q23-48" style="edgeStyle=orthogonalEdgeStyle;rounded=0;orthogonalLoop=1;jettySize=auto;html=1;exitX=1;exitY=0.5;exitDx=0;exitDy=0;entryX=0.5;entryY=1;entryDx=0;entryDy=0;strokeWidth=2;strokeColor=#990000;" parent="WIyWlLk6GJQsqaUBKTNV-1" source="H1e-5a3Cm02XF8Il_Q23-7" target="CSgYlb6cWF5ThP2nFrCP-60" edge="1">
          <mxGeometry relative="1" as="geometry">
            <Array as="points">
              <mxPoint x="640" y="560" />
              <mxPoint x="640" y="860" />
              <mxPoint x="520" y="860" />
            </Array>
          </mxGeometry>
        </mxCell>
        <mxCell id="H1e-5a3Cm02XF8Il_Q23-7" value="현재 경험치 &lt;br&gt;+ 획득 예정 경험치&lt;br&gt;&amp;gt;= 필요 경험치" style="rhombus;whiteSpace=wrap;html=1;strokeWidth=1;" parent="WIyWlLk6GJQsqaUBKTNV-1" vertex="1">
          <mxGeometry x="440" y="520" width="160" height="80" as="geometry" />
        </mxCell>
        <mxCell id="H1e-5a3Cm02XF8Il_Q23-21" value="(0.99)필요 경험치 &lt;br&gt;- 현재 경험치 &lt;br&gt;만큼 경험치 획득" style="whiteSpace=wrap;html=1;strokeWidth=1;" parent="WIyWlLk6GJQsqaUBKTNV-1" vertex="1">
          <mxGeometry x="440" y="640" width="160" height="80" as="geometry" />
        </mxCell>
        <mxCell id="H1e-5a3Cm02XF8Il_Q23-23" style="edgeStyle=orthogonalEdgeStyle;rounded=0;orthogonalLoop=1;jettySize=auto;html=1;exitX=0.5;exitY=1;exitDx=0;exitDy=0;entryX=1;entryY=0.5;entryDx=0;entryDy=0;strokeWidth=2;" parent="WIyWlLk6GJQsqaUBKTNV-1" source="9F6AWZ_ub-mQiCkGwfMx-15" target="CSgYlb6cWF5ThP2nFrCP-54" edge="1">
          <mxGeometry relative="1" as="geometry">
            <mxPoint x="200" y="610" as="sourcePoint" />
            <mxPoint x="240" y="610" as="targetPoint" />
          </mxGeometry>
        </mxCell>
      </root>
    </mxGraphModel>
  </diagram>
</mxfile>
